<?xml version="1.0" standalone="no"?>
<!DOCTYPE svg PUBLIC "-//W3C//DTD SVG 1.1//EN" "http://www.w3.org/Graphics/SVG/1.1/DTD/svg11.dtd" >
<svg xmlns="http://www.w3.org/2000/svg">
<metadata>Generated by IcoMoon</metadata>
<defs>
<font id="advicons" horiz-adv-x="1024">
<font-face units-per-em="1024" ascent="880.64" descent="-143.36" />
<missing-glyph horiz-adv-x="1024" />
<glyph unicode="&#x20;" horiz-adv-x="143.36" d="" />
<glyph unicode="&#xe900;" glyph-name="arrowB" d="M321.241 879.839l-115.431-115.431 379.272-379.273-379.272-379.273 115.431-115.43 494.704 494.703-494.704 494.704z" />
<glyph unicode="&#xe901;" glyph-name="arrowL" d="M329.027 385.161l446.833 446.833c10.987 10.99 10.987 28.614 0 39.603-10.991 10.989-28.617 10.989-39.603 0l-466.738-466.737c-10.989-10.991-10.989-28.612 0-39.603l466.738-466.53c5.389-5.389 12.646-8.294 19.695-8.294 7.053 0 14.31 2.697 19.699 8.294 10.991 10.991 10.991 28.612 0 39.603l-446.624 446.831z" />
<glyph unicode="&#xe902;" glyph-name="basketF" d="M351.775 249.37h517.312c12.811 0 24.046 8.47 27.513 20.773l114.542 400.871c2.461 8.642 0.775 17.925-4.645 25.106-5.431 7.158-13.872 11.386-22.879 11.386h-697.945l-20.468 92.103c-2.908 13.116-14.54 22.429-27.962 22.429h-173.707c-15.823 0-28.633-12.81-28.633-28.633 0-15.83 12.81-28.633 28.633-28.633h150.727l103.399-465.288c-30.423-13.228-51.786-43.509-51.786-78.749 0-47.364 38.535-85.899 85.899-85.899h517.312c15.828 0 28.632 12.804 28.632 28.635 0 15.821-12.804 28.632-28.632 28.632h-517.312c-15.771 0-28.633 12.833-28.633 28.632 0 15.803 12.863 28.635 28.633 28.635zM323.143 48.936c0-47.371 38.535-85.899 85.905-85.899 47.367 0 85.903 38.528 85.903 85.899 0 47.364-38.535 85.903-85.903 85.903-47.37 0-85.905-38.539-85.905-85.903zM725.921 48.936c0-47.371 38.535-85.899 85.899-85.899 47.371 0 85.899 38.528 85.899 85.899 0 47.364-38.528 85.903-85.899 85.903-47.364 0-85.899-38.539-85.899-85.903z" />
<glyph unicode="&#xe903;" glyph-name="basketL" d="M353.041 229.603h0.045c0.038 0 0.075 0.007 0.113 0.007h524.49c12.91 0 24.265 8.565 27.813 20.981l115.716 404.999c2.491 8.731 0.746 18.118-4.718 25.365-5.467 7.247-14.018 11.511-23.099 11.511h-707.076l-20.679 93.061c-2.946 13.236-14.683 22.653-28.243 22.653h-173.572c-15.978 0-28.929-12.95-28.929-28.929s12.95-28.929 28.929-28.929h150.368c3.662-16.491 98.96-445.343 104.444-470.015-30.744-13.363-52.313-44.017-52.313-79.627 0-47.854 38.933-86.788 86.786-86.788h524.573c15.978 0 28.928 12.95 28.928 28.928s-12.95 28.932-28.928 28.932h-524.573c-15.948 0-28.929 12.979-28.929 28.928 0 15.923 12.935 28.88 28.853 28.921zM955.048 634.609l-99.185-347.143h-479.543l-77.144 347.143h655.872zM324.187 27.11c0-47.854 38.933-86.788 86.784-86.788 47.854 0 86.788 38.934 86.788 86.788 0 47.85-38.934 86.784-86.788 86.784-47.851 0-86.784-38.934-86.784-86.784zM410.971 56.038c15.949 0 28.932-12.979 28.932-28.928s-12.983-28.928-28.932-28.928c-15.945 0-28.928 12.979-28.928 28.928s12.983 28.928 28.928 28.928zM733.045 27.11c0-47.854 38.934-86.788 86.784-86.788 47.854 0 86.788 38.934 86.788 86.788 0 47.85-38.934 86.784-86.788 86.784-47.85 0-86.784-38.934-86.784-86.784zM819.829 56.038c15.949 0 28.932-12.979 28.932-28.928s-12.983-28.928-28.932-28.928c-15.949 0-28.928 12.979-28.928 28.928s12.979 28.928 28.928 28.928z" />
<glyph unicode="&#xe904;" glyph-name="basketL2" d="M316.202 214.386h548.655c62.21 0 112.961 50.75 112.961 112.961v230.841c0 0.205 0 0.614 0 0.819 0 0.614 0 1.023 0 1.637 0 0.41 0 0.819-0.205 1.228 0 0.41-0.205 1.023-0.205 1.433s-0.2 0.818-0.2 1.228c-0.205 0.409-0.205 0.818-0.41 1.432-0.205 0.41-0.205 0.819-0.41 1.228s-0.205 0.819-0.41 1.228c-0.205 0.409-0.41 0.819-0.614 1.433-0.205 0.409-0.41 0.818-0.614 1.023-0.205 0.409-0.41 0.819-0.614 1.228s-0.41 0.614-0.614 1.023c-0.205 0.409-0.614 0.819-0.819 1.228s-0.41 0.614-0.819 1.023c-0.205 0.41-0.61 0.614-0.815 1.024s-0.614 0.614-0.819 1.023c-0.205 0.409-0.614 0.614-0.819 0.818-0.41 0.41-0.614 0.614-1.024 1.024-0.41 0.204-0.614 0.614-1.024 0.818s-0.819 0.614-1.229 0.819c-0.41 0.205-0.61 0.409-1.020 0.614s-0.819 0.409-1.229 0.818c-0.41 0.205-0.819 0.41-1.229 0.614s-0.819 0.41-1.229 0.614c-0.41 0.205-0.819 0.41-1.229 0.614s-0.815 0.205-1.224 0.41c-0.41 0.204-1.024 0.409-1.434 0.409s-0.819 0.205-1.024 0.205-1.024 0.204-1.638 0.204c-0.205 0-0.41 0.205-0.819 0.205l-695.382 95.979v97.002c0 1.023 0 2.046-0.205 2.865 0 0.205 0 0.409-0.205 0.819 0 0.614-0.204 1.227-0.204 1.841-0.205 0.614-0.205 1.024-0.409 1.638 0 0.409-0.205 0.614-0.205 1.023-0.205 0.614-0.409 1.228-0.614 1.842 0 0.204-0.205 0.614-0.205 0.818-0.204 0.614-0.409 1.024-0.818 1.638-0.205 0.204-0.205 0.614-0.41 0.818-0.204 0.41-0.409 0.819-0.818 1.228-0.205 0.409-0.41 0.614-0.614 1.023s-0.41 0.614-0.614 1.024c-0.205 0.409-0.614 0.818-0.819 1.228-0.204 0.204-0.409 0.409-0.614 0.614-0.409 0.409-0.818 0.818-1.228 1.227-0.204 0.205-0.409 0.41-0.614 0.614-0.409 0.41-0.818 0.819-1.432 1.228-0.205 0.205-0.614 0.41-0.819 0.614-0.409 0.41-0.818 0.614-1.228 1.024-0.614 0.409-1.228 0.818-1.637 1.023-0.205 0.204-0.409 0.204-0.614 0.409-0.818 0.409-1.842 0.819-2.66 1.228l-150.824 63.44c-14.121 5.935-30.287-0.614-36.222-14.734s0.614-30.287 14.735-36.222l133.838-56.482v-605.339c0-57.304 42.975-104.782 98.434-111.941-10.028-16.78-15.962-36.428-15.962-57.304 0-61.596 50.138-111.531 111.531-111.531s111.531 50.14 111.531 111.531c0 20.467-5.525 39.909-15.347 56.28h248.44c-9.826-16.575-15.351-35.813-15.351-56.28 0-61.596 50.14-111.531 111.531-111.531 61.395 0 111.531 50.14 111.531 111.531 0 61.395-50.136 111.536-111.531 111.536h-521.844c-31.925 0-57.71 25.987-57.71 57.709v74.899c16.781-9.821 36.632-15.551 57.71-15.551zM453.723-14.002c0-31.103-25.376-56.275-56.277-56.275s-56.277 25.377-56.277 56.275c0 30.903 25.376 56.28 56.277 56.28s56.277-25.173 56.277-56.28zM894.531-14.002c0-31.103-25.377-56.275-56.28-56.275s-56.275 25.377-56.275 56.275c0 30.903 25.373 56.28 56.275 56.28s56.28-25.173 56.28-56.28zM864.857 269.637h-548.655c-31.925 0-57.71 25.992-57.71 57.709v298.579l664.074-91.476v-206.898c0-32.127-25.992-57.914-57.709-57.914z" />
<glyph unicode="&#xe905;" glyph-name="calendarL" d="M939.386 760.837h-132.657v61.217c0 16.927-13.682 30.609-30.609 30.609s-30.609-13.682-30.609-30.609v-61.217h-183.652v61.217c0 16.927-13.713 30.609-30.609 30.609s-30.609-13.682-30.609-30.609v-61.217h-183.654v61.217c0 16.927-13.713 30.609-30.609 30.609s-30.609-13.682-30.609-30.609v-61.217h-132.627c-45.087 0-81.634-36.516-81.634-81.603v-724.415c0-45.087 36.547-81.635 81.634-81.635h816.242c45.087 0 81.604 36.548 81.604 81.635v724.415c0 45.086-36.517 81.603-81.604 81.603zM959.773-45.181c0-11.264-9.154-20.418-20.387-20.418h-816.242c-11.264 0-20.416 9.154-20.416 20.418v724.415c0 11.233 9.152 20.385 20.416 20.385h132.627v-61.217c0-16.927 13.713-30.609 30.609-30.609s30.609 13.682 30.609 30.609v61.217h183.654v-61.217c0-16.927 13.713-30.609 30.609-30.609s30.609 13.682 30.609 30.609v61.217h183.652v-61.217c0-16.927 13.682-30.609 30.609-30.609s30.609 13.682 30.609 30.609v61.217h132.657c11.233 0 20.387-9.152 20.387-20.385v-724.415zM378.206 485.359h-122.435v-91.827h122.435v91.827zM378.206 332.315h-122.435v-91.826h122.435v91.826zM378.206 179.271h-122.435v-91.826h122.435v91.826zM592.469 179.271h-122.435v-91.826h122.435v91.826zM592.469 332.315h-122.435v-91.826h122.435v91.826zM592.469 485.359h-122.435v-91.827h122.435v91.827zM806.729 179.271h-122.435v-91.826h122.435v91.826zM806.729 332.315h-122.435v-91.826h122.435v91.826zM806.729 485.359h-122.435v-91.827h122.435v91.827z" />
<glyph unicode="&#xe906;" glyph-name="calendarL2" d="M863.281 795.22h-126.161v31.543c0 18.924-12.617 31.543-31.544 31.543s-31.544-12.616-31.544-31.543v-31.543h-315.408v31.543c0 18.924-12.616 31.543-31.543 31.543-18.924 0-31.543-12.616-31.543-31.543v-31.543h-126.163c-88.317 0-157.706-69.389-157.706-157.706v-567.744c0-88.318 69.39-157.705 157.706-157.705h693.906c88.318 0 157.705 69.387 157.705 157.705v567.744c0 88.317-69.387 157.706-157.705 157.706zM74.75 637.514c0 50.466 44.158 94.625 94.625 94.625h126.163v-31.543c0-18.924 12.616-31.543 31.543-31.543 18.923 0 31.543 12.616 31.543 31.543v31.543h315.413v-31.543c0-18.924 12.613-31.543 31.544-31.543 18.926 0 31.539 12.616 31.539 31.543v31.543h126.166c50.465 0 94.627-44.158 94.627-94.625v-94.624h-883.162v94.624zM957.907 69.77c0-50.465-44.161-94.622-94.627-94.622h-693.906c-50.466 0-94.625 44.157-94.625 94.622v410.038h883.157v-410.038zM232.454 69.77c18.924 0 31.543 6.309 44.158 18.926 12.616 12.613 18.924 31.539 18.924 44.157s-6.308 31.544-18.924 44.157c-25.231 25.235-63.082 25.235-88.316 0-12.616-12.613-18.924-25.23-18.924-44.157 0-12.617 6.308-31.544 18.924-44.157 12.616-12.617 25.235-18.926 44.158-18.926zM232.454 259.019c18.924 0 31.543 6.309 44.158 18.926 12.616 12.613 18.924 31.539 18.924 44.157s-6.308 31.544-18.924 44.157c-25.231 25.235-63.082 25.235-88.316 0-12.616-12.613-18.924-25.23-18.924-44.157s6.308-31.544 18.924-44.157c12.616-12.617 25.235-18.926 44.158-18.926zM421.704 69.77c18.924 0 31.541 6.309 44.158 18.926 12.617 12.613 18.922 31.539 18.922 44.157s-6.304 31.544-18.922 44.157c-25.231 25.235-63.082 25.235-88.316 0-12.616-12.613-18.924-31.539-18.924-44.157s6.308-31.544 18.924-44.157c12.616-12.617 25.235-18.926 44.158-18.926zM421.704 259.019c18.924 0 31.541 6.309 44.158 18.926 12.617 12.613 18.922 31.539 18.922 44.157s-6.304 31.544-18.922 44.157c-25.231 25.235-63.082 25.235-88.316 0-12.616-12.613-18.924-31.539-18.924-44.157s6.308-31.544 18.924-44.157c12.616-12.617 25.235-18.926 44.158-18.926zM610.95 69.77c18.926 0 31.544 6.309 44.161 18.926 12.613 12.613 18.922 25.23 18.922 44.157s-6.309 31.544-18.922 44.157c-25.23 25.235-63.083 25.235-88.318 0-12.617-12.613-18.922-31.539-18.922-44.157s6.304-31.544 18.922-44.157c12.617-12.617 25.235-18.926 44.157-18.926zM610.95 259.019c18.926 0 31.544 6.309 44.161 18.926 12.613 12.613 18.922 25.23 18.922 44.157 0 12.617-6.309 31.544-18.922 44.157-25.23 25.235-63.083 25.235-88.318 0-12.617-12.613-18.922-31.539-18.922-44.157s6.304-31.544 18.922-44.157c12.617-12.617 25.235-18.926 44.157-18.926zM800.198 69.77c18.926 0 31.544 6.309 44.157 18.926 12.617 12.613 18.926 31.539 18.926 44.157s-6.309 31.544-18.926 44.157c-25.23 25.235-63.078 25.235-88.313 0-12.617-12.613-18.926-25.23-18.926-44.157 0-12.617 6.309-31.544 18.926-44.157 12.613-12.617 25.235-18.926 44.157-18.926zM800.198 259.019c18.926 0 31.544 6.309 44.157 18.926 12.617 12.613 18.926 25.23 18.926 44.157 0 12.617-6.309 31.544-18.926 44.157-25.23 25.235-63.078 25.235-88.313 0-12.617-12.613-18.926-31.539-18.926-44.157s6.309-31.544 18.926-44.157c12.613-12.617 25.235-18.926 44.157-18.926z" />
<glyph unicode="&#xe907;" glyph-name="callPhoneF" d="M671.016 373.772c-1.877-2.819-1.877-5.639-2.816-9.399-0.939-12.218 8.459-23.497 20.673-24.437 12.22-0.94 23.501 8.459 24.439 20.677 0 2.819 0 5.639 0.939 10.338 0 4.699 0 7.519 0 10.338 0 27.256-4.699 53.572-13.158 78.949-11.275 32.895-31.016 62.031-54.511 86.468-29.138 29.136-64.853 49.813-105.265 61.091-18.797 4.7-39.474 7.519-59.212 7.519-6.579 0-13.158 0-20.677-0.94-6.579-0.94-13.158-1.88-19.737-2.819-12.219-1.88-20.677-14.098-17.857-25.376 1.88-12.219 14.098-20.677 25.376-17.857 5.639 0.94 10.338 1.88 15.977 1.88 0.94 0 1.88 0 2.82 0 4.699 0 9.399 0.94 14.098 0.94 51.693 0 99.624-20.677 133.461-55.452 33.838-33.835 54.511-79.889 55.45-131.582v-1.88c0-3.759 0-6.579 0-8.459zM795.079 353.095c-0.939-12.219 8.459-23.497 20.679-24.437s23.495 8.459 24.434 20.677c0.944 10.338 0.944 20.677 0.944 31.016 0 20.677-1.883 40.414-4.699 60.151-12.22 75.189-48.873 142.859-100.568 194.552-59.21 59.212-138.16 97.746-225.568 104.326-9.399 0.94-19.737 0.94-29.136 0.94-10.338 0-20.677 0-31.016-0.94s-20.677-1.88-31.015-3.76c-12.219-1.88-20.677-14.098-17.857-25.376 1.88-12.218 14.098-20.677 25.376-17.857 6.579 0.94 12.218 1.88 18.797 2.82 2.819 0 5.639 0.94 8.459 0.94 9.399 0.94 18.797 0.94 27.256 0.94 31.956 0 62.031-4.7 91.165-13.158 50.756-15.038 95.869-42.294 132.523-78.949 30.077-30.076 54.511-66.731 70.491-106.205 14.097-35.715 22.556-75.189 22.556-116.544 0-2.819 0-6.579 0-9.399-1.877-7.519-2.822-13.158-2.822-19.737zM827.039 725.282c-89.287 89.287-211.473 143.799-346.813 143.799-14.098 0-28.196-0.94-42.294-1.88s-28.196-2.82-42.294-5.639c-12.218-1.88-20.677-14.098-17.857-25.376 1.88-12.219 14.098-20.677 25.376-17.857 6.579 0.94 12.219 1.88 18.797 2.819s13.158 1.88 19.738 1.88c13.158 0.94 25.376 1.88 38.534 1.88 122.182 0 233.087-49.812 313.915-129.702 79.889-79.888 129.701-190.793 129.701-313.915 0-6.579 0-14.098 0-20.677 0-5.639-0.939-11.278-0.939-17.857-0.939-12.218 8.459-23.496 20.679-24.434 12.214-0.944 23.495 8.459 24.434 20.675 0.939 14.098 1.883 28.196 1.883 41.354 0 134.401-54.517 256.584-142.859 344.932zM935.122 155.722l-166.36 89.287c-55.45 30.077-57.327 10.337-115.598-51.695-14.103-15.036-40.42-54.511-71.435-46.99-64.848 15.98-186.091 110.905-225.566 154.14-18.797 20.673-99.626 119.36-100.565 151.316-1.88 48.873 105.265 73.31 70.49 166.356l-74.25 166.357c-69.55 159.777-264.102-95.866-248.125-215.229 41.354-294.178 557.341-769.752 844.938-612.795 63.915 35.715 150.38 160.717 86.471 199.253z" />
<glyph unicode="&#xe908;" glyph-name="card" d="M542.419 220.934h271.206c10.173 0 16.95 6.781 16.95 16.95v152.557c0 10.17-6.778 16.95-16.95 16.95h-271.206c-10.17 0-16.95-6.781-16.95-16.95v-152.557c-0.003-10.166 6.781-16.95 16.95-16.95zM559.37 373.491h237.309v-118.653h-237.309v118.653zM84.755 441.334h135.605c10.17 0 16.95 6.781 16.95 16.95s-6.78 16.95-16.95 16.95h-135.605c-10.17 0-16.95-6.781-16.95-16.95s6.78-16.95 16.95-16.95zM288.161 441.334h135.605c10.17 0 16.95 6.781 16.95 16.95s-6.781 16.95-16.95 16.95h-135.605c-10.171 0-16.95-6.781-16.95-16.95s6.78-16.95 16.95-16.95zM84.755 373.491h220.356c10.171 0 16.95 6.781 16.95 16.95s-6.779 16.95-16.95 16.95h-220.356c-10.17 0-16.95-6.781-16.95-16.95s6.78-16.95 16.95-16.95zM423.763 407.392h-50.851c-10.17 0-16.95-6.781-16.95-16.95s6.781-16.95 16.95-16.95h50.851c10.173 0 16.95 6.781 16.95 16.95s-6.778 16.95-16.95 16.95zM1001.779 617.654c-11.866 15.261-27.12 23.74-45.766 25.435l-40.682 4.932v81.546c0 37.303-30.512 67.825-67.802 67.825h-779.728c-37.291 0.002-67.802-30.519-67.802-67.825v-542.603c0-30.627 20.573-56.669 48.573-65.014-0.854-34.301 25.090-64.077 59.911-67.245l783.115-88.173c1.696 0 5.085 0 6.781 0 33.901 0 64.413 25.434 67.802 57.651l50.851 544.298c1.696 16.957-3.392 35.61-15.254 49.174zM33.902 678.697h847.529v-101.738h-847.529v101.738zM67.802 763.479h779.725c18.646 0 33.901-15.261 33.901-33.913v-16.956h-847.525v16.956c0 18.652 15.256 33.913 33.9 33.913zM33.902 186.966v356.081h847.529v-356.081c0-18.653-15.254-33.914-33.901-33.914h-779.726c-18.646 0-33.902 15.261-33.902 33.914zM983.133 575.264l-50.851-544.298c-1.696-18.653-18.646-32.218-37.293-30.522l-781.421 88.173c-16.95 1.693-28.817 15.261-30.511 30.522h764.469c37.29 0 67.802 30.522 67.802 67.824v428.996l38.989-3.392c8.474 0 16.947-5.087 22.035-11.869 5.085-6.782 8.477-16.956 6.781-25.435z" />
<glyph unicode="&#xe909;" glyph-name="chatF" d="M402.552 667.841c-222.337 0-402.56-138.605-402.56-309.663 0-83.853 43.414-160.092 113.894-215.835-4.088-56.852-17.775-126.403-57.411-163.873 78.902 0 159.538 49.422 210.508 88.068 42.362-11.641 87.944-18.022 135.569-18.022 222.338 0 402.562 138.543 402.562 309.662 0 171.058-180.224 309.663-402.562 309.663zM937.648 328.020c33.874 45.273 53.26 97.914 53.26 154.025 0 171.057-180.224 309.661-402.559 309.661-97.853 0-187.531-26.879-257.267-71.47 32.824 6.193 67.135 9.538 102.434 9.538 239.432 0 433.529-152.539 433.529-340.627 0-74.131-30.040-142.817-81.256-198.617 50.848-38.646 131.604-88.191 210.51-88.191-56.111 53.26-60.137 171.303-58.651 225.681z" />
<glyph unicode="&#xe90a;" glyph-name="checkB" d="M14.38 347.724c-7.503 7.503-11.255 18.758-11.255 26.26s3.751 18.758 11.255 26.26l52.521 52.521c15.006 15.006 37.515 15.006 52.521 0l3.752-3.752 206.332-221.338c7.503-7.503 18.758-7.503 26.26 0l502.7 521.458h3.752c15.006 15.006 37.516 15.006 52.522 0l52.522-52.521c15.006-15.006 15.006-37.515 0-52.521l-600.24-622.752c-7.503-7.503-15.006-11.25-26.26-11.25s-18.757 3.747-26.26 11.25l-292.617 315.127-7.503 11.256z" />
<glyph unicode="&#xe90b;" glyph-name="checkB2" d="M676.919 560.228l-231.030-235.325-118.378 118.855-63.484-63.484 186.636-186.159 299.768 290.694-73.511 75.42zM497.92 862.38c-263.623 0-477.333-213.71-477.333-477.332s213.71-477.334 477.333-477.334c263.621 0 477.33 213.713 477.33 477.334s-213.705 477.332-477.33 477.332zM497.92-5.888c-215.909 0-390.937 175.029-390.937 390.936s175.028 390.936 390.937 390.936c215.796-0.262 390.672-175.136 390.936-390.936 0-215.91-175.029-390.936-390.936-390.936z" />
<glyph unicode="&#xe90c;" glyph-name="checkL" d="M990.689 736.841c-19.474 19.478-51.049 19.478-70.531 0l-597.519-597.524-229.677 229.675c-19.476 19.478-51.053 19.476-70.533 0-19.478-19.476-19.478-51.054 0-70.532l264.943-264.94c19.47-19.474 51.070-19.46 70.533 0l632.784 632.788c19.478 19.476 19.478 51.054 0 70.532z" />
<glyph unicode="&#xe90d;" glyph-name="checkL2" d="M828.604 720.846c-86.579 89.67-201.69 139.054-324.134 139.054-122.441 0-237.555-49.385-324.132-139.054-86.579-89.671-134.259-208.896-134.259-335.711s47.68-246.037 134.259-335.706c86.579-89.673 201.691-139.059 324.132-139.059 122.445 0 237.555 49.387 324.134 139.059 86.579 89.668 134.259 208.892 134.259 335.706s-47.68 246.038-134.259 335.711zM504.469-33.993c-223.137 0-404.673 188.019-404.673 419.127s181.536 419.128 404.673 419.128c223.142 0 404.676-188.020 404.676-419.128s-181.534-419.127-404.676-419.127zM723.469 537.469c-10.487 10.86-27.494 10.86-37.982-0.002l-237.18-245.653-124.855 129.314c-10.487 10.863-27.495 10.863-37.984 0s-10.489-28.476 0-39.339l143.844-148.983c5.245-5.431 12.119-8.145 18.99-8.145 6.874 0 13.747 2.714 18.991 8.145l256.175 265.323c10.487 10.862 10.487 28.477 0 39.34z" />
<glyph unicode="&#xe90e;" glyph-name="clockF" d="M501.85 875.802c-270.981 0-490.657-219.683-490.657-490.654s219.676-490.679 490.653-490.679c270.98 0 490.671 219.699 490.671 490.679 0 270.982-219.691 490.654-490.667 490.654zM535.731 325.15c-0.026-1.289-0.218-2.577-0.397-3.87-0.128-0.969-0.188-1.958-0.405-2.91-0.222-0.994-0.597-1.971-0.917-2.961-0.384-1.199-0.738-2.394-1.242-3.52-0.094-0.196-0.128-0.405-0.209-0.602-0.742-1.579-1.6-3.055-2.539-4.454-0.055-0.085-0.137-0.171-0.196-0.256-1.067-1.57-2.287-2.999-3.571-4.335-0.354-0.367-0.721-0.695-1.097-1.045-1.126-1.075-2.317-2.061-3.575-2.961-0.393-0.277-0.764-0.572-1.173-0.845-1.617-1.058-3.315-1.993-5.082-2.756-0.384-0.171-0.785-0.273-1.173-0.427-1.489-0.576-3.004-1.054-4.561-1.417-0.559-0.132-1.114-0.256-1.681-0.358-2.005-0.363-4.032-0.619-6.084-0.619-0.418 0-0.841 0.128-1.259 0.145-1.967 0.077-3.917 0.23-5.794 0.627-0.585 0.128-1.161 0.384-1.745 0.546-1.745 0.474-3.456 0.998-5.082 1.728-0.188 0.098-0.384 0.111-0.572 0.196l-188.138 88.742c-16.951 7.991-24.213 28.22-16.221 45.171 7.991 16.939 28.217 24.209 45.168 16.218l139.732-65.89v292.879c0 18.74 15.194 33.935 33.933 33.935s33.933-15.194 33.933-33.935v-346.417h0.009c0-0.201-0.060-0.405-0.060-0.61z" />
<glyph unicode="&#xe90f;" glyph-name="clockL" d="M952.062 553.569c-51.641 120.394-139.393 207.953-260.791 259.73-60.679 25.878-124.247 39.096-190.66 39.096-66.397 0-129.497-13.093-190.106-39.096-120.394-51.639-208.536-139.142-260.267-259.73-25.923-60.414-38.558-123.707-38.558-190.106 0-66.413 12.636-130.231 38.558-190.655 51.732-120.587 139.885-208.616 260.267-260.27 60.621-26.001 123.707-39.081 190.106-39.081 66.404 0 129.981 13.219 190.647 39.081 121.402 51.779 209.154 139.887 260.804 260.27 26.001 60.621 39.095 124.242 39.095 190.655 0 66.4-13.080 129.488-39.095 190.106zM873.882 147.1c-38.445-65.932-91.109-118.236-157.442-156.908-65.932-38.445-138.173-57.834-215.815-57.834-58.368 0-114.064 11.242-167.087 34.277-53.021 23.018-98.801 53.284-137.097 91.568-38.296 38.298-68.776 84.52-91.568 137.635-22.725 52.919-33.738 109.243-33.738 167.624 0 77.65 19.079 149.525 57.307 215.274 38.364 65.988 91.043 118.349 156.907 156.908 65.852 38.558 137.623 57.844 215.262 57.844 77.655 0 149.882-19.399 215.815-57.844 66.333-38.673 118.886-91.032 157.447-156.907 38.556-65.864 57.829-137.625 57.829-215.276 0-77.655-19.144-150.020-57.82-216.362zM531.674 367.745v277.404c0 16.6-14.461 29.989-31.063 29.989-15.525 0-29.456-13.389-29.456-29.989v-281.687c0-0.539 1.077-2.689 1.077-4.287-1.077-9.643 1.612-17.675 8.032-24.109l160.131-160.118c10.716-10.716 30.524-10.716 41.232 0 12.315 12.315 11.504 30.186 0 41.77l-149.954 151.027z" />
<glyph unicode="&#xe910;" glyph-name="closeB" d="M617.097 385.468l357.934 380.304c22.238 23.608 22.238 61.912 0 85.52-22.238 23.628-58.254 23.628-80.492 0l-357.931-380.304-357.953 380.304c-22.238 23.628-58.251 23.628-80.489 0-22.238-23.608-22.238-61.912 0-85.52l357.952-380.304-357.952-380.303c-22.238-23.609-22.238-61.912 0-85.521 11.119-11.793 25.692-17.704 40.245-17.704s29.125 5.911 40.244 17.721l357.953 380.308 357.931-380.308c11.122-11.81 25.691-17.721 40.249-17.721 14.552 0 29.121 5.911 40.243 17.721 22.238 23.609 22.238 61.918 0 85.521l-357.934 380.286z" />
<glyph unicode="&#xe911;" glyph-name="closeL" d="M877.528 709.204c-92.547 92.547-215.392 143.459-346.277 143.459-130.887 0-253.734-50.912-346.281-143.459s-143.459-215.394-143.459-346.281c0-130.885 50.911-253.734 143.459-346.281s215.394-143.458 346.281-143.458c130.885 0 253.729 50.911 346.277 143.458 92.552 92.547 143.462 215.396 143.462 346.281s-50.911 253.733-143.462 346.281zM838.162 56.013c-82.036-82.036-191.074-127.176-306.911-127.176-115.84 0-224.877 45.141-306.913 127.176-169.224 169.223-169.224 444.599 0 613.823 82.036 82.035 191.073 127.175 306.913 127.175 115.837 0 224.875-45.14 306.911-127.175 169.223-169.224 169.223-444.6 0-613.823zM747.057 578.731c-10.926 10.924-28.445 10.924-39.371 0l-176.435-176.437-176.439 176.437c-10.924 10.924-28.444 10.924-39.369 0s-10.924-28.444 0-39.369l176.437-176.438-176.437-176.44c-10.924-10.921-10.924-28.44 0-39.366 5.359-5.36 12.573-8.245 19.582-8.245s14.222 2.68 19.581 8.245l176.436 176.44 176.44-176.44c5.36-5.36 12.573-8.245 19.581-8.245 7.217 0 14.225 2.68 19.581 8.245 10.926 10.926 10.926 28.445 0 39.366l-176.026 176.44 176.44 176.438c10.926 10.924 10.926 28.444 0 39.369z" />
<glyph unicode="&#xe912;" glyph-name="discountF2" d="M541.059 679.013v191.031c0 9.569-7.757 17.327-17.328 17.327-9.568 0-17.325-7.758-17.325-17.327v-191.031c-216.516-9.425-385.82-190.142-381.107-406.818s181.716-389.862 398.432-389.862c216.726 0 393.722 173.187 398.435 389.862 4.71 216.675-164.586 397.393-381.107 406.818zM506.406 573.018v-37.005c-13.581-7.843-20.205-23.834-16.144-38.986 4.061-15.146 17.786-25.686 33.469-25.686 15.686 0 29.418 10.541 33.478 25.686 4.061 15.152-2.563 31.142-16.15 38.986v37.005c33.802-8.72 55.83-41.219 51.434-75.84-4.4-34.621-33.853-60.576-68.762-60.576-34.899 0-64.358 25.955-68.749 60.576-4.4 34.621 17.632 67.12 51.424 75.84zM367.787 263.59c0 38.275 31.034 69.309 69.31 69.309 38.282 0 69.309-31.034 69.309-69.309s-31.027-69.309-69.309-69.309c-38.277 0-69.31 31.034-69.31 69.309zM433.635 27.939c-5.744-7.658-16.608-9.206-24.256-3.462-7.657 5.738-9.214 16.602-3.469 24.259l207.926 277.235c5.744 7.658 16.602 9.203 24.256 3.459 7.658-5.734 9.206-16.598 3.469-24.256l-207.926-277.235zM610.368 21.008c-38.275 0-69.309 31.034-69.309 69.312 0 38.275 31.034 69.309 69.309 69.309 38.285 0 69.309-31.034 69.309-69.309 0-38.278-31.024-69.312-69.309-69.312zM645.024 90.317c0-19.136-15.517-34.653-34.656-34.653-19.136 0-34.653 15.517-34.653 34.653 0 19.139 15.517 34.656 34.653 34.656 19.139 0 34.656-15.517 34.656-34.656zM471.75 263.59c0-19.136-15.517-34.653-34.656-34.653-19.136 0-34.653 15.517-34.653 34.653 0 19.139 15.517 34.656 34.653 34.656 19.139 0 34.656-15.517 34.656-34.656z" />
<glyph unicode="&#xe913;" glyph-name="couponL" d="M433.735 856.447c-4.4 4.432-10.936 5.968-16.85 3.973l-269.867-89.948-83.635 83.643c-6.466 6.241-16.737 6.152-23.090-0.201s-6.442-16.632-0.201-23.090l83.618-83.643-89.948-269.859c-1.962-5.922-0.426-12.443 3.989-16.857l582.337-582.356c6.437-6.426 16.857-6.426 23.294 0l372.708 372.718c6.434 6.423 6.434 16.857 0 23.28l-582.356 582.34zM631.734-86.955l-563.525 563.511 81.527 244.583 63.858-63.858c-23.307-35.267-16.133-82.469 16.616-109.202 32.749-26.743 80.426-24.345 110.328 5.557 29.896 29.894 32.29 77.571 5.557 110.32-26.742 32.749-73.935 39.931-109.21 16.616l-63.826 63.858 244.584 81.568 563.511-563.48-349.421-349.474zM270.688 600.227c6.458-6.241 16.736-6.152 23.090 0.201s6.442 16.624 0.201 23.090l-32.797 32.822c18.803 9.169 41.363 5.348 56.105-9.498 18.015-17.75 19.793-46.213 4.118-66.062-15.675-19.841-43.776-24.715-65.217-11.292-21.433 13.423-29.331 40.824-18.329 63.593l32.83-32.854z" />
<glyph unicode="&#xe914;" glyph-name="discountL2" d="M509.929-127.412c225.046 1.012 408.199 181.339 412.692 406.335 4.503 224.996-171.289 412.513-396.107 422.522v149.682c0 9.159-7.425 16.585-16.586 16.585-9.157 0-16.583-7.426-16.583-16.585v-149.682c-224.819-10.009-400.61-197.526-396.107-422.522s187.655-405.323 412.69-406.335zM509.929 502.834c9.16 0 16.586 7.425 16.586 16.586v11.978c13.008-7.507 19.348-22.815 15.459-37.317-3.885-14.497-17.031-24.588-32.045-24.588-15.006 0-28.148 10.091-32.037 24.588-3.885 14.503 2.455 29.81 15.454 37.317v-11.978c0-9.16 7.425-16.586 16.583-16.586zM493.346 668.275v-101.456c-32.347-8.35-53.435-39.456-49.222-72.593 4.201-33.14 32.399-57.985 65.805-57.985 33.415 0 61.604 24.845 65.817 57.985 4.21 33.137-16.878 64.243-49.231 72.593v101.456c207.255-9.022 369.301-182.003 364.79-389.401-4.509-207.398-173.928-373.172-381.376-373.172-207.438 0-376.855 165.774-381.366 373.172s157.537 380.38 364.783 389.401zM400.475 41.762c7.32-5.497 17.718-4.017 23.218 3.312l199.025 265.368c5.492 7.329 4.008 17.727-3.321 23.218-7.329 5.497-17.718 4.017-23.218-3.315l-199.025-265.365c-5.497-7.329-4.008-17.727 3.321-23.218zM427.002 204.297c36.645 0 66.341 29.705 66.341 66.341 0 36.639-29.696 66.343-66.341 66.343-36.636 0-66.341-29.705-66.341-66.343 0-36.636 29.706-66.341 66.341-66.341zM427.002 303.809c18.327 0 33.172-14.854 33.172-33.172s-14.845-33.172-33.172-33.172c-18.318 0-33.172 14.854-33.172 33.172s14.854 33.172 33.172 33.172zM526.517 104.784c0-36.639 29.705-66.343 66.343-66.343 36.645 0 66.341 29.705 66.341 66.343 0 36.636-29.696 66.341-66.341 66.341-36.639 0-66.343-29.705-66.343-66.341zM626.030 104.784c0-18.321-14.845-33.172-33.169-33.172-18.321 0-33.172 14.851-33.172 33.172 0 18.318 14.851 33.169 33.172 33.169 18.324 0 33.169-14.851 33.169-33.169z" />
<glyph unicode="&#xe915;" glyph-name="discountF" d="M946.038 384.819l42.714 111.408c4.685 12.288 1.034 26.224-9.248 34.56l-92.608 75.082-18.739 117.857c-2.070 13.021-12.291 23.182-25.312 25.251l-117.859 18.74-75.021 92.668c-8.275 10.283-22.512 13.933-34.499 9.248l-111.469-42.774-111.408 42.713c-12.352 4.746-26.163 0.974-34.499-9.249l-75.084-92.667-117.857-18.74c-12.96-2.069-23.182-12.291-25.251-25.251l-18.74-117.858-92.667-75.082c-10.222-8.275-13.934-22.211-9.249-34.499l42.713-111.408-42.713-111.408c-4.746-12.291-0.974-26.224 9.249-34.499l92.667-75.024 18.74-117.856c2.069-13.021 12.23-23.245 25.251-25.312l117.857-18.742 75.084-92.605c8.336-10.346 22.269-13.994 34.56-9.248l111.347 42.653 111.408-42.714c3.53-1.341 7.178-2.010 10.89-2.010 8.944 0 17.766 3.955 23.67 11.318l75.021 92.605 117.859 18.742c13.021 2.067 23.242 12.291 25.312 25.312l18.739 117.856 92.608 75.024c10.282 8.336 13.933 22.208 9.248 34.499l-42.714 111.408zM412.73 445.658c-50.32 0-91.269 40.95-91.269 91.267 0 50.321 40.949 91.269 91.269 91.269s91.267-40.949 91.267-91.269c0-50.317-40.947-91.267-91.267-91.267zM412.73 567.35c-16.794 0-30.422-13.632-30.422-30.426 0-16.79 13.629-30.422 30.422-30.422s30.422 13.632 30.422 30.422c0 16.794-13.629 30.426-30.422 30.426zM595.264 141.437c-50.32 0-91.267 40.947-91.267 91.267s40.947 91.267 91.267 91.267c50.32 0 91.267-40.947 91.267-91.267s-40.947-91.267-91.267-91.267zM595.264 263.126c-16.733 0-30.422-13.69-30.422-30.422s13.69-30.422 30.422-30.422c16.733 0 30.422 13.69 30.422 30.422s-13.69 30.422-30.422 30.422zM351.901 141.437c-6.147 0-12.291 1.824-17.646 5.658-13.69 9.798-16.854 28.781-7.058 42.47l304.228 425.918c9.795 13.69 28.778 16.854 42.47 7.058 13.69-9.735 16.794-28.78 7.056-42.409l-304.227-425.917c-6.022-8.336-15.331-12.778-24.822-12.778z" />
<glyph unicode="&#xe919;" glyph-name="discountL" d="M943.445 371.75c-4.086 8.363-4.086 17.954 0 26.313l37.888 77.503c21.091 43.155 4.379 94.589-38.048 117.101l-76.206 40.433c-8.219 4.361-13.858 12.122-15.466 21.286l-14.903 84.971c-8.301 47.309-52.060 79.1-99.611 72.373l-85.415-12.083c-9.219-1.302-18.336 1.663-25.023 8.132l-62 59.979c-34.526 33.398-88.607 33.4-123.129 0l-62-59.985c-6.69-6.472-15.807-9.43-25.027-8.132l-85.414 12.082c-47.565 6.732-91.312-25.063-99.611-72.373l-14.903-84.967c-1.609-9.166-7.245-16.925-15.465-21.288l-76.204-40.433c-42.429-22.51-59.142-73.949-38.048-117.1l37.884-77.503c4.087-8.363 4.087-17.951 0-26.313l-37.886-77.5c-21.093-43.155-4.381-94.587 38.048-117.101l76.204-40.431c8.222-4.362 13.858-12.124 15.467-21.286l14.903-84.972c7.555-43.069 44.484-73.271 86.927-73.267 4.18 0 8.422 0.294 12.686 0.894l85.415 12.083c9.213 1.307 18.333-1.662 25.023-8.131l62-59.979c17.265-16.701 39.41-25.050 61.563-25.047 22.149 0 44.305 8.349 61.563 25.047l62.003 59.979c6.69 6.468 15.807 9.424 25.023 8.131l85.415-12.083c47.572-6.728 91.31 25.064 99.611 72.373l14.906 84.968c1.608 9.165 7.243 16.927 15.462 21.289l76.206 40.431c42.428 22.511 59.139 73.95 38.048 117.101l-37.888 77.503zM915.825 228.902l-76.206-40.431c-24.293-12.896-40.957-35.826-45.708-62.918l-14.906-84.972c-2.806-16.005-17.603-26.757-33.7-24.484l-85.415 12.083c-27.238 3.857-54.193-4.908-73.964-24.033l-62.003-59.976c-11.677-11.298-29.976-11.298-41.656 0l-62 59.979c-16.712 16.162-38.554 24.921-61.358 24.921-4.178 0-8.39-0.294-12.609-0.891l-85.414-12.083c-16.082-2.273-30.892 8.482-33.702 24.487l-14.905 84.972c-4.754 27.092-21.415 50.026-45.712 62.915l-76.204 40.434c-14.356 7.615-20.010 25.016-12.874 39.615l37.886 77.503c12.078 24.713 12.078 53.057 0 77.769l-37.886 77.503c-7.136 14.599-1.482 32 12.874 39.619l76.204 40.432c24.295 12.894 40.959 35.824 45.71 62.917l14.903 84.969c2.81 16.006 17.606 26.76 33.702 24.486l85.415-12.082c27.232-3.855 54.193 4.908 73.964 24.032l62.003 59.979c11.677 11.296 29.976 11.296 41.656 0l62.003-59.979c19.77-19.125 46.729-27.887 73.964-24.032l85.415 12.082c16.084 2.276 30.894-8.479 33.7-24.486l14.906-84.971c4.751-27.093 21.412-50.025 45.711-62.915l76.203-40.432c14.356-7.619 20.012-25.020 12.875-39.619l-37.885-77.503c-12.080-24.709-12.080-53.057 0-77.766l37.885-77.5c7.137-14.606 1.485-32.007-12.872-39.625zM717.135 598.947c-11.438 11.439-29.99 11.439-41.428 0l-386.652-386.652c-11.439-11.441-11.439-29.99 0-41.428 5.72-5.721 13.217-8.581 20.712-8.581s14.995 2.857 20.712 8.581l386.651 386.65c11.445 11.441 11.445 29.987 0.003 41.429zM385.922 648.547c-59.225 0-107.409-48.185-107.409-107.411s48.184-107.407 107.409-107.407 107.411 48.183 107.411 107.407c0 59.226-48.186 107.411-107.411 107.411zM385.922 492.315c-26.921 0-48.821 21.903-48.821 48.824s21.9 48.821 48.821 48.821 48.824-21.901 48.824-48.821c-0.003-26.921-21.903-48.824-48.824-48.824zM620.268 336.087c-59.225 0-107.411-48.186-107.411-107.411s48.186-107.411 107.411-107.411c59.225 0 107.411 48.186 107.411 107.411s-48.186 107.411-107.411 107.411zM620.268 179.855c-26.921 0-48.824 21.9-48.824 48.821s21.903 48.821 48.824 48.821c26.921 0 48.821-21.9 48.821-48.821s-21.9-48.821-48.821-48.821z" />
<glyph unicode="&#xe91a;" glyph-name="fb" d="M746.695 853.258l-121.755 0.195c-136.788 0-225.186-90.694-225.186-231.066v-106.536h-122.419c-10.578 0-19.145-8.576-19.145-19.154v-154.36c0-10.578 8.576-19.145 19.145-19.145h122.419v-389.501c0-10.576 8.566-19.143 19.145-19.143h159.722c10.578 0 19.145 8.579 19.145 19.143v389.501h143.136c10.578 0 19.145 8.566 19.145 19.145l0.059 154.36c0 5.079-2.022 9.944-5.607 13.538s-8.468 5.617-13.548 5.617h-143.185v90.312c0 43.408 10.344 65.444 66.889 65.444l82.020 0.030c10.569 0 19.135 8.576 19.135 19.145v143.332c0 10.559-8.557 19.125-19.116 19.145z" />
<glyph unicode="&#xe91b;" glyph-name="instB" d="M727.072 864h-430.152c-146.077 0-264.92-118.849-264.92-264.925v-430.147c0-146.086 118.843-264.928 264.92-264.928h430.152c146.086 0 264.928 118.848 264.928 264.928v430.147c0.006 146.077-118.842 264.925-264.928 264.925zM906.829 168.928c0-99.117-80.64-179.75-179.757-179.75h-430.152c-99.11-0.006-179.744 80.634-179.744 179.75v430.147c0 99.111 80.634 179.75 179.744 179.75h430.152c99.11 0 179.75-80.639 179.75-179.75v-430.147h0.006zM511.999 631.356c-136.401 0-247.368-110.967-247.368-247.368 0-136.397 110.967-247.354 247.368-247.354 136.404 0 247.367 110.957 247.367 247.354 0 136.401-110.963 247.368-247.367 247.368zM511.999 221.811c-89.428 0-162.191 72.753-162.191 162.182 0 89.434 72.757 162.192 162.191 162.192s162.189-72.758 162.189-162.192c0-89.429-72.76-162.182-162.189-162.182zM769.741 703.58c-16.41 0-32.531-6.644-44.122-18.285-11.642-11.583-18.336-27.71-18.336-44.177 0-16.417 6.694-32.538 18.336-44.178 11.584-11.584 27.712-18.285 44.122-18.285 16.467 0 32.538 6.701 44.179 18.285 11.642 11.64 18.285 27.767 18.285 44.178 0 16.467-6.643 32.594-18.285 44.177-11.584 11.641-27.712 18.285-44.179 18.285z" />
<glyph unicode="&#xe91e;" glyph-name="likeF" d="M739.994 841.28c-114.66 0-190.469-62.611-228.073-104.032-37.604 41.421-113.412 104.032-228.074 104.032-153.369 0-260.654-141.708-260.654-308.469 0-121.949 61.494-359.527 473.321-580.487 9.626-5.162 21.197-5.157 30.808 0 411.834 220.961 473.325 458.536 473.325 580.487 0 162.979-104.201 308.469-260.655 308.469z" />
<glyph unicode="&#xe91f;" glyph-name="likeL" d="M738.898 840.242c-114.115 0-189.558-62.31-226.985-103.537-37.424 41.222-112.871 103.537-226.987 103.537-155.709 0-259.413-144.797-259.413-307.002 0-121.368 61.201-357.814 471.069-577.723 9.57-5.135 21.086-5.14 30.661 0 409.871 219.909 471.071 456.355 471.071 577.723 0 165.969-106.772 307.002-259.415 307.002zM511.912 20.992c-196.876 108.247-421.547 288.609-421.547 512.248 0 124.406 74.706 242.147 194.56 242.147 90.928 0 166.158-55.754 199.449-108.249 12.69-20.412 42.494-20.391 55.131 0.087 0.671 1.081 68.285 108.164 199.393 108.164 120.75 0 194.56-118.923 194.56-242.147 0-223.646-224.666-404.003-421.545-512.25z" />
<glyph unicode="&#xe920;" glyph-name="mailB" d="M884.234 737.969h-766.516c-64.693 0-117.324-52.632-117.324-117.324v-500.585c0-64.691 52.632-117.32 117.324-117.32h766.516c64.696 0 117.325 52.628 117.325 117.32v500.585c0 64.693-52.628 117.324-117.325 117.324zM923.346 120.059c0-21.56-17.546-39.107-39.112-39.107h-766.516c-21.564 0-39.108 17.546-39.108 39.107v500.585c0 21.564 17.544 39.108 39.108 39.108h766.516c21.565 0 39.112-17.544 39.112-39.108v-500.585zM916.705 689.206l-415.725-309.221-415.727 309.221-46.683-62.758 462.41-343.944 462.409 343.944-46.684 62.758z" />
<glyph unicode="&#xe921;" glyph-name="mailF" d="M490.972 262.073l-120.952 100.299-345.822-280.848c12.57-11.046 29.54-17.929 48.256-17.929h837.040c18.646 0 35.546 6.883 48.048 17.929l-345.613 280.848-120.957-100.299zM957.747 707.261c-12.568 11.115-29.469 17.929-48.253 17.929h-837.041c-18.646 0-35.546-6.881-48.116-18.061l466.635-378.894 466.775 379.027zM2.13 667.103v-549.65l337.512 271.715-337.512 277.935zM642.306 389.168l337.51-271.715v549.849l-337.51-278.134z" />
<glyph unicode="&#xe922;" glyph-name="mailF2" d="M93.975 517.94c12.337-8.705 49.524-34.56 111.564-77.552 62.041-42.991 109.569-76.093 142.586-99.308 3.627-2.545 11.334-8.076 23.124-16.602 11.791-8.532 21.589-15.429 29.385-20.685 7.801-5.257 17.233-11.157 28.304-17.686 11.067-6.519 21.5-11.425 31.295-14.677 9.797-3.272 18.867-4.896 27.21-4.896h1.097c8.343 0 17.418 1.624 27.214 4.896 9.791 3.252 20.231 8.163 31.291 14.677 11.064 6.539 20.495 12.429 28.297 17.686s17.593 12.153 29.389 20.685c11.786 8.534 19.505 14.058 23.133 16.602 33.373 23.215 118.277 82.174 254.688 176.872 26.483 18.495 48.611 40.813 66.384 66.936 17.788 26.112 26.673 53.505 26.673 82.165 0 23.949-8.621 44.449-25.854 61.5-17.237 17.054-37.649 25.577-61.221 25.577h-801.091c-27.935 0-49.432-9.432-64.489-28.295-15.055-18.867-22.582-42.45-22.582-70.747 0-22.857 9.981-47.625 29.932-74.29 19.95-26.667 41.181-47.621 63.671-62.858zM921.181 459.715c-118.989-80.537-209.34-143.127-271.009-187.76-20.68-15.228-37.459-27.121-50.342-35.64-12.883-8.528-30.018-17.237-51.429-26.122-21.402-8.894-41.345-13.332-59.855-13.332h-1.1c-18.503 0-38.46 4.437-59.863 13.332-21.402 8.884-38.548 17.593-51.428 26.122-12.876 8.519-29.658 20.412-50.336 35.64-48.982 35.918-139.14 98.512-270.475 187.76-20.686 13.778-39.008 29.57-54.972 47.345v-432.098c0-23.957 8.522-44.446 25.577-61.499 17.051-17.062 37.553-25.585 61.5-25.585h801.090c23.942 0 44.442 8.524 61.494 25.585 17.062 17.057 25.58 37.537 25.58 61.499v432.098c-15.604-17.407-33.738-33.2-54.433-47.345z" />
<glyph unicode="&#xe923;" glyph-name="phoneF" d="M947.692 128.614c-2.606 8.289-19.19 20.5-49.741 36.608-8.279 5.079-20.070 11.976-35.328 20.731-15.273 8.75-29.138 16.819-41.564 24.187-12.452 7.368-24.12 14.51-35.021 21.407-1.746 1.382-7.199 5.407-16.358 12.099-9.175 6.676-16.911 11.628-23.25 14.858-6.323 3.215-12.544 4.828-18.657 4.828-8.724 0-19.625-6.564-32.707-19.686-13.087-13.133-25.093-27.402-35.994-42.844-10.906-15.437-22.472-29.706-34.678-42.834-12.227-13.133-22.267-19.692-30.116-19.692-3.937 0-8.847 1.157-14.73 3.446-5.883 2.299-10.358 4.275-13.43 5.862-3.046 1.623-8.269 4.838-15.693 9.692-7.439 4.833-11.576 7.485-12.447 7.946-59.777 35.016-111.045 75.090-153.812 120.212-42.754 45.148-80.723 99.262-113.885 162.369-0.435 0.922-2.95 5.299-7.528 13.126-4.585 7.833-7.641 13.353-9.168 16.586-1.527 3.221-3.382 7.945-5.56 14.161s-3.271 11.396-3.271 15.545c0 8.286 6.22 18.885 18.657 31.783 12.435 12.891 25.966 25.102 40.578 36.609 14.624 11.507 28.141 24.177 40.581 37.99 12.434 13.82 18.652 25.329 18.652 34.54 0 6.444-1.527 13.015-4.578 19.691-3.054 6.691-7.745 14.856-14.074 24.533-6.332 9.672-10.149 15.425-11.461 17.276-6.538 11.507-13.295 23.826-20.284 36.954-6.99 13.126-14.62 27.757-22.914 43.876-8.288 16.112-14.829 28.552-19.634 37.303-15.264 32.236-26.825 49.746-34.681 52.5-3.056 1.382-7.641 2.079-13.744 2.079-11.788 0-27.167-2.299-46.147-6.911-18.987-4.605-33.927-9.435-44.838-14.51-21.818-9.668-44.943-37.763-69.381-84.276-22.254-43.288-33.38-86.132-33.38-128.502 0-12.426 0.763-24.516 2.29-36.272 1.527-11.744 4.255-24.988 8.187-39.73 3.925-14.737 7.091-25.685 9.484-32.814 2.396-7.134 6.868-19.913 13.416-38.344 6.538-18.425 10.47-29.704 11.779-33.849 15.27-45.141 33.379-85.44 54.322-120.906 34.457-58.957 81.479-119.885 141.040-182.758 59.562-62.868 117.271-112.502 173.126-148.884 33.597-22.103 71.789-41.216 114.548-57.349 3.927-1.372 14.612-5.514 32.061-12.442 17.459-6.907 29.568-11.628 36.326-14.162 6.764-2.534 17.137-5.878 31.084-10.030 13.983-4.147 26.516-7.030 37.642-8.653 11.136-1.587 22.589-2.412 34.365-2.412 40.136 0 80.727 11.756 121.743 35.241 44.063 25.784 70.671 50.202 79.836 73.247 4.818 11.505 9.38 27.279 13.742 47.324 4.378 20.029 6.554 36.26 6.554 48.701 0.010 6.467-0.645 11.295-1.961 14.551z" />
<glyph unicode="&#xe924;" glyph-name="pig" d="M732.482 14.216l5.093 4.485c0.816 0.611 1.428 1.223 2.039 2.039 2.647 3.057 62.151 71.755 84.769 124.555h10.8c30.771 0 55.835 25.073 55.835 55.853v88.269c0 30.78-25.064 55.856-55.835 55.856h-12.023c-18.543 48.312-50.128 91.934-92.106 127.407-6.114 21.811-1.629 45.050 13.652 69.307 8.559 13.658 8.559 30.783-0.202 44.442-8.764 13.657-24.046 20.996-40.144 18.958-58.892-7.339-94.145-34.043-114.727-58.912-19.357 5.298-39.328 9.376-59.5 11.619-11.005 1.223-21.194-6.523-22.417-17.736-1.223-11.008 6.52-21.2 17.73-22.423 22.414-2.65 44.625-7.544 65.819-14.27 8.556-2.65 17.727 0.611 22.823 7.948 13.854 20.591 41.773 46.682 95.163 53.411 0.407 0 0.813 0 1.223-0.611 0.407-0.611 0.202-1.021 0-1.223-21.194-33.84-27.509-69.105-18.137-102.129 0.205-5.912 2.852-11.418 7.538-15.086 42.996-34.656 74.174-78.688 90.070-127.407 2.647-8.358 10.595-13.863 19.155-13.863h26.082c8.559 0 15.486-6.93 15.486-15.493v-88.266c0-8.562-6.927-15.493-15.486-15.493h-24.657c-8.761 0-16.709-5.71-19.357-14.27-11.412-37.307-61.539-100.5-81.104-123.127l-4.482-3.873c-41.978-37.915-46.258-82.763-46.462-96.217v-28.338h-116.354v27.317c0 5.707-2.446 11.213-6.725 15.086s-9.984 5.707-15.691 5.096c-29.75-3.057-59.705-2.65-88.642 1.223-5.704 0.816-11.614-1.018-15.894-4.891-4.483-3.873-6.928-9.379-6.928-15.291v-28.335h-116.355v7.951c0 0.202 0 0.611 0 0.816-1.019 21.402-7.744 75.628-50.129 119.251-19.97 20.588-37.902 47.905-53.389 80.929-0.204 0.205-0.204 0.41-0.407 0.816-9.17 17.531-16.098 36.081-20.785 55.651l-0.204 0.816c0 0.202-0.204 0.407-0.204 0.611-7.336 24.462-6.521 55.242-6.521 55.447s0 0.407 0 0.611c0 13.454 1.222 27.112 3.26 40.364 1.834 11.008-5.502 21.405-16.506 23.239s-21.396-5.506-23.23-16.514c-2.649-15.288-3.872-30.985-3.872-46.682-0.204-4.075-0.611-38.322 8.151-67.882 5.298-21.811 13.449-43.216 23.842-63.599 17.117-37.102 37.699-67.882 60.725-91.735 32.4-33.431 37.902-75.424 38.717-92.549v-8.358c0-0.813 0-1.425 0.204-2.65 1.426-20.588 18.747-36.897 39.329-36.897h117.986c21.804 0 39.531 17.736 39.531 39.547v6.728c17.73-1.428 35.253-1.632 53.185-0.816v-5.912c0-21.811 17.73-39.547 39.532-39.547h117.986c21.805 0 39.532 17.736 39.532 39.547v28.744c0.41 6.319 2.65 38.936 33.217 66.455zM122.176 488.397c0-91.525 74.378-166.132 166.077-166.132 91.495 0 166.077 74.403 166.077 166.132 0 91.525-74.378 166.133-166.077 166.133-91.495 0-166.077-74.403-166.077-166.133zM413.983 488.397c0-69.307-56.446-125.771-125.73-125.771s-125.729 56.465-125.729 125.771c0 69.307 56.446 125.772 125.729 125.772s125.73-56.465 125.73-125.772zM593.712 762.779c0 63.793-51.962 115.765-115.742 115.765-63.783 0-115.746-51.972-115.746-115.765s51.963-115.765 115.746-115.765c63.78 0 115.742 51.972 115.742 115.765zM402.368 762.779c0 41.577 33.826 75.41 75.397 75.41s75.397-33.833 75.397-75.41c0-41.577-33.825-75.41-75.397-75.41s-75.397 33.833-75.397 75.41z" />
<glyph unicode="&#xe925;" glyph-name="pinB" d="M515.97 673.476c-100.059 0-181.464-81.406-181.464-181.464 0-100.062 81.405-181.465 181.464-181.465s181.467 81.403 181.467 181.465c0 100.059-81.408 181.464-181.467 181.464zM515.97 386.951c-57.93 0-105.059 47.131-105.059 105.061s47.13 105.059 105.059 105.059c57.93 0 105.058-47.13 105.058-105.059s-47.127-105.061-105.058-105.061zM515.969 883.594c-215.92 0-391.583-175.665-391.583-391.583v-10.825c0-109.199 62.607-236.455 186.087-378.213 89.513-102.772 177.777-174.434 181.488-177.431l24.009-19.4 24.009 19.395c3.713 3.002 91.974 74.664 181.485 177.431 123.48 141.768 186.089 269.014 186.089 378.216v10.825c0 215.92-175.663 391.585-391.583 391.585zM831.148 481.184c0-184.541-237.782-407.936-315.179-475.748-77.419 67.835-315.177 291.221-315.177 475.748v10.825c0 173.788 141.389 315.177 315.177 315.177s315.179-141.389 315.179-315.177v-10.825z" />
<glyph unicode="&#xe926;" glyph-name="pinF" d="M526.911 882.353c-194.266 0-352.312-158.046-352.312-352.309 0-241.086 315.284-595.017 328.708-609.967 12.609-14.044 34.622-14.019 47.207 0 13.424 14.95 328.707 368.881 328.707 609.967-0.005 194.264-158.044 352.309-352.31 352.309zM526.911 352.788c-97.74 0-177.255 79.516-177.255 177.255s79.517 177.254 177.255 177.254c97.738 0 177.252-79.517 177.252-177.256s-79.515-177.253-177.252-177.253z" />
<glyph unicode="&#xe927;" glyph-name="pointerF" d="M76.025 197.303c47.327 51.155 100.441 31.121 171.542 20.302 61.084-9.394 121.233 7.747 117.226 40.737-6.322 53.382-15.226 77.245-35.484 146.387-16.161 54.985-46.837 154.090-74.752 248.832-37.398 126.753-48.217 185.611 1.558 200.303 53.649 15.627 84.413-60.594 112.284-166.289 31.744-120.298 48.44-173.412 57.789-170.607 16.473 4.719-6.055 56.186 37.042 68.875 53.871 15.672 64.289-26.446 79.382-22.216 15.093 4.541 9.973 47.193 52.936 59.748 43.186 12.466 64.868-40.693 82.677-35.395 17.631 5.209 17.23 24.398 43.854 32.011 26.669 7.925 127.021-36.998 184.454-233.205 72.081-246.695-9.127-292.552 15.494-376.075l-321.759-122.346c-26.045 62.642-106.719 67.272-178.087 107.208-71.903 40.47-120.743 119.318-308.135 115.489-70.478-1.425-67.139 54.762-38.022 86.239z" />
<glyph unicode="&#xe928;" glyph-name="questionL" d="M686.374 262.79c-10.698 0-19.373-8.675-19.373-19.376v-133.686c0-53.418-43.459-96.877-96.877-96.877h-209.187c-10.698 0-19.366-8.666-19.376-19.36l-0.026-38.522-46.245 46.243c-2.993 6.87-9.844 11.638-17.769 11.638h-125.897c-53.417 0-96.875 43.459-96.875 96.877v298.374c0 53.418 43.458 96.874 96.875 96.874h195.687c10.701 0 19.376 8.675 19.376 19.376s-8.675 19.376-19.376 19.376h-195.687c-74.784 0-135.625-60.842-135.625-135.626v-298.374c0-74.784 60.841-135.626 135.625-135.626h115.975l79.574-79.574c3.706-3.706 8.662-5.677 13.706-5.677 2.493 0 5.008 0.483 7.402 1.475 7.242 2.995 11.962 10.054 11.968 17.888l0.048 65.888h189.827c74.784 0 135.626 60.842 135.626 135.626v133.686c0 10.701-8.675 19.376-19.376 19.376zM726.394 880.853h-49.037c-155.277 0-281.606-126.329-281.606-281.608s126.33-281.606 281.606-281.606h49.037c24.234 0 48.224 3.078 71.472 9.162l72.438-72.397c3.706-3.702 8.659-5.67 13.699-5.67 2.499 0 5.018 0.483 7.414 1.478 7.238 2.998 11.958 10.061 11.958 17.898v112.096c30.669 24.835 56.144 56.211 74.022 91.261 20.307 39.808 30.602 82.797 30.602 127.779 0 155.279-126.33 281.608-281.606 281.608zM872.342 405.13c-4.858-3.661-7.718-9.392-7.718-15.478v-74.787l-47.411 47.389c-3.69 3.683-8.637 5.67-13.699 5.67-1.898 0-3.818-0.282-5.686-0.858-23.062-7.088-47.098-10.678-71.434-10.678h-49.037c-133.914 0-242.858 108.944-242.858 242.858 0 133.912 108.947 242.858 242.858 242.858h49.037c133.914 0 242.858-108.946 242.858-242.858 0-76.979-35.322-147.731-96.909-194.115zM789.126 668.85c-2.797 40.562-35.494 73.259-76.058 76.055-22.995 1.579-44.938-6.177-61.734-21.857-16.566-15.463-26.064-37.322-26.064-59.973 0-10.701 8.675-19.375 19.373-19.375 10.701 0 19.376 8.674 19.376 19.375 0 12.127 4.886 23.366 13.757 31.645 8.861 8.271 20.445 12.365 32.63 11.524 21.366-1.473 38.589-18.695 40.061-40.060 1.488-21.578-12.669-40.647-33.658-45.343-17.008-3.805-28.886-18.584-28.886-35.939v-46.55c0-10.701 8.678-19.373 19.376-19.373 10.701 0 19.376 8.672 19.373 19.373v45.002c39.040 9.432 65.235 45.155 62.454 85.496zM720.998 475.411c-3.606 3.603-8.605 5.677-13.699 5.677s-10.096-2.074-13.699-5.677c-3.603-3.603-5.677-8.602-5.677-13.699 0-5.114 2.077-10.112 5.677-13.715 3.603-3.606 8.605-5.658 13.699-5.658s10.093 2.051 13.699 5.658c3.603 3.622 5.677 8.602 5.677 13.715 0 5.098-2.077 10.096-5.677 13.699zM548.813 280.227h-408.813c-10.699 0-19.375-8.675-19.375-19.376s8.676-19.373 19.375-19.373h408.813c10.701 0 19.376 8.672 19.376 19.373s-8.678 19.376-19.376 19.376zM562.509 166.051c-3.603 3.603-8.602 5.677-13.696 5.677s-10.096-2.074-13.699-5.677c-3.606-3.603-5.677-8.602-5.677-13.699 0-5.094 2.074-10.093 5.677-13.699 3.603-3.603 8.605-5.677 13.699-5.677s10.093 2.074 13.696 5.677c3.606 3.606 5.68 8.586 5.68 13.699 0 5.098-2.077 10.096-5.68 13.699zM472.605 171.728h-332.605c-10.699 0-19.375-8.675-19.375-19.376s8.676-19.376 19.375-19.376h332.605c10.701 0 19.376 8.675 19.376 19.376s-8.678 19.376-19.376 19.376zM422.874 388.726h-282.874c-10.699 0-19.375-8.672-19.375-19.373s8.676-19.376 19.375-19.376h282.874c10.701 0 19.376 8.675 19.376 19.376s-8.675 19.373-19.376 19.373z" />
<glyph unicode="&#xe929;" glyph-name="questionL2" d="M998.805-12.873l-67.371 196.062c32.405 65.502 49.54 138.509 49.655 211.972 0.196 126.502-48.747 246.119-137.822 336.808-89.092 90.706-207.808 141.762-334.276 143.769-66.262 1.064-130.559-11.145-191.202-36.248-58.491-24.213-110.944-59.286-155.901-104.244-44.959-44.957-80.032-97.41-104.243-155.901-25.103-60.643-37.298-124.971-36.25-191.203 2.003-126.468 53.061-245.184 143.767-334.276 90.512-88.9 209.821-137.83 336.051-137.83 0.247 0 0.508 0 0.755 0 73.463 0.115 146.47 17.254 211.972 49.655l196.062-67.366c7.539-2.594 15.266-3.857 22.912-3.857 18.159 0 35.823 7.134 49.216 20.531 19.029 19.034 25.421 46.669 16.674 72.128zM940.988-43.861c-1.929-1.929-6.059-4.855-12.079-2.79l-207.757 71.386c-3.072 1.058-6.268 1.583-9.455 1.583-4.693 0-9.37-1.139-13.602-3.379-60.045-31.765-127.893-48.61-196.215-48.717-229.138-0.367-418.681 185.745-422.311 414.848-1.827 115.264 42.019 223.596 123.46 305.037 81.441 81.439 189.74 125.277 305.038 123.454 229.099-3.632 415.198-193.081 414.839-422.309-0.107-68.326-16.951-136.175-48.713-196.215-3.763-7.108-4.412-15.454-1.801-23.057l71.39-207.757c2.069-6.016-0.862-10.155-2.795-12.083zM496.474 180.535c-15.219 0-29.794-13.38-29.094-29.094 0.708-15.761 12.783-29.090 29.094-29.090 15.215 0 29.794 13.38 29.090 29.090-0.704 15.765-12.783 29.094-29.090 29.094zM496.474 631.091c-79.81 0-144.739-64.929-144.739-144.737 0-16.065 13.026-29.091 29.091-29.091s29.091 13.026 29.091 29.091c0 47.725 38.83 86.554 86.557 86.554 47.723 0 86.554-38.83 86.554-86.554s-38.831-86.555-86.554-86.555c-16.068 0-29.094-13.026-29.094-29.090v-118.652c0-16.064 13.026-29.090 29.094-29.090 16.064 0 29.090 13.022 29.090 29.090v92.497c65.911 13.504 115.644 71.953 115.644 141.8 0 79.808-64.926 144.737-144.734 144.737z" />
<glyph unicode="&#xe92a;" glyph-name="quoteF" d="M53.967-55.252h311.227c28.256 0 51.189 22.933 51.189 51.185v311.228c0 28.258-22.933 51.19-51.189 51.19h-148.959c1.945 81.493 20.885 146.706 56.717 195.745 28.256 38.698 71.049 70.742 128.279 96.030 26.311 11.568 37.674 42.691 25.389 68.696l-36.856 77.807c-11.876 24.979-41.258 35.934-66.648 24.979-67.774-29.28-125.004-66.341-171.686-111.386-56.923-54.977-95.927-117.017-117.017-186.224s-31.635-163.598-31.635-283.381v-244.682c0-28.253 22.934-51.185 51.188-51.185zM892.436 821.403c-66.955-29.177-123.875-66.237-170.867-111.182-57.432-54.977-96.646-116.812-117.736-185.507s-31.632-163.393-31.632-284.098v-244.682c0-28.253 22.933-51.185 51.19-51.185h311.223c28.258 0 51.19 22.933 51.19 51.185v311.228c0 28.258-22.933 51.19-51.19 51.19h-148.958c1.946 81.493 20.885 146.706 56.72 195.745 28.253 38.698 71.046 70.742 128.278 96.030 26.312 11.569 37.673 42.691 25.39 68.696l-36.757 77.602c-11.874 24.979-41.462 36.037-66.853 24.979z" />
<glyph unicode="&#xe92b;" glyph-name="quoteF2" d="M234.255 475.842c116.905 0 211.673-94.807 211.673-211.757 0-116.945-94.768-211.751-211.673-211.751s-211.675 94.806-211.675 211.751l-0.945 30.253c0 233.898 189.54 423.509 423.35 423.509v-121.003c-80.772 0-156.71-31.466-213.825-88.603-10.994-11-21.028-22.703-30.079-34.996 10.809 1.702 21.886 2.596 33.173 2.596zM778.559 475.842c116.904 0 211.677-94.807 211.677-211.757 0-116.945-94.773-211.751-211.677-211.751-116.9 0-211.673 94.806-211.673 211.751l-0.946 30.253c0 233.898 189.538 423.509 423.35 423.509v-121.003c-80.769 0-156.713-31.466-213.823-88.603-10.998-11-21.029-22.703-30.081-34.996 10.809 1.702 21.885 2.596 33.174 2.596z" />
<glyph unicode="&#xe92c;" glyph-name="quoteF3" d="M340.858 422.044c-23.224 6.687-46.449 10.079-69.041 10.079-34.886 0-63.996-7.973-86.568-17.735 21.761 79.664 74.036 217.123 178.171 232.602 9.644 1.434 17.547 8.407 20.178 17.794l22.76 81.405c1.919 6.884 0.781 14.253-3.145 20.228s-10.237 9.96-17.31 10.93c-7.685 1.048-15.519 1.583-23.284 1.583-124.996 0-248.784-130.465-301.020-317.271-30.663-109.595-39.654-274.364 35.876-378.073 42.265-58.030 103.927-89.021 183.275-92.115 0.326-0.009 0.643-0.022 0.969-0.022 97.903 0 184.718 65.937 211.128 160.327 15.779 56.431 8.646 115.61-20.097 166.68-28.439 50.493-75.274 87.298-131.892 103.589zM953.709 318.442c-28.436 50.506-75.273 87.311-131.891 103.602-23.223 6.687-46.45 10.079-69.031 10.079-34.883 0-64.004-7.973-86.577-17.735 21.762 79.664 74.035 217.123 178.18 232.602 9.643 1.434 17.537 8.407 20.177 17.794l22.76 81.405c1.919 6.884 0.784 14.253-3.143 20.228-3.918 5.974-10.227 9.96-17.31 10.93-7.676 1.048-15.511 1.583-23.285 1.583-124.995 0-248.783-130.465-301.029-317.271-30.653-109.595-39.642-274.364 35.898-378.091 42.251-58.025 103.927-89.021 183.265-92.107 0.325-0.013 0.641-0.022 0.975-0.022 97.894 0 184.721 65.937 211.131 160.327 15.756 56.431 8.615 115.619-20.119 166.676z" />
<glyph unicode="&#xe92d;" glyph-name="searchB" d="M968.669-2.914l-229.467 238.659c59.002 70.136 91.329 158.381 91.329 250.25 0 214.638-174.631 389.268-389.27 389.268-214.641 0-389.271-174.629-389.271-389.268 0-214.642 174.629-389.27 389.271-389.27 80.577 0 157.365 24.304 223.015 70.439l231.211-240.467c9.661-10.035 22.662-15.569 36.588-15.569 13.186 0 25.695 5.025 35.186 14.163 20.177 19.413 20.819 51.606 1.406 71.794zM441.261 773.714c158.649 0 287.72-129.068 287.72-287.719 0-158.653-129.071-287.72-287.72-287.72-158.654 0-287.722 129.067-287.722 287.72 0 158.651 129.068 287.719 287.722 287.719z" />
<glyph unicode="&#xe92e;" glyph-name="searchL" d="M987.652-68.305l-238.895 238.895c64.082 73.671 102.883 169.796 102.883 274.858 0 231.265-188.109 419.154-419.156 419.154-231.265 0-419.154-188.107-419.154-419.154s188.107-419.156 419.154-419.156c105.062 0 201.187 38.801 274.858 102.883l238.895-238.895c5.669-5.665 13.296-8.716 20.705-8.716 7.414 0 15.041 2.83 20.709 8.716 11.334 11.334 11.334 30.081 0 41.415zM71.964 445.448c0 198.787 161.733 360.303 360.303 360.303 198.787 0 360.301-161.733 360.301-360.303s-161.513-360.522-360.301-360.522c-198.571 0-360.303 161.735-360.303 360.522z" />
<glyph unicode="&#xe92f;" glyph-name="specialL" d="M790.341 104.269c-26.331-24.686-26.331-65.829 0-92.164 13.166-13.166 29.623-19.749 46.080-19.749s32.914 6.583 46.080 19.749c26.331 24.686 26.331 65.829 0 92.164-24.686 26.331-65.829 26.331-92.16 0zM859.461 33.503c-13.166-13.169-32.914-13.169-46.080 0-13.166 13.166-13.166 32.914 0 46.080 6.583 6.583 14.811 9.874 23.040 9.874 8.232 0 16.457-3.291 23.044-9.874 13.166-13.166 13.166-32.918-0.004-46.080zM994.414 84.513l-296.236 296.346 286.362 286.467c27.981 27.989 27.981 74.086 0 102.075l-83.931 83.965c-13.166 13.17-31.272 21.402-51.021 21.402s-37.851-8.232-51.017-21.402l-286.365-286.468-292.947 293.052c-18.104 18.111-51.018 18.111-69.122 0l-116.848-116.893c-19.749-18.111-19.749-49.391 0-69.147l220.532-220.611c0 0 0 0 0.002-0.004l72.413-72.437-264.196-264.291c-4.926-2.176-7.582-6.619-9.001-12.299l-34.561-197.563c0-6.587 1.645-11.524 4.937-14.819 3.29-3.295 6.582-4.941 11.52-4.941 1.645 0 1.645 0 3.292 0l189.864 35.116c1.314-0.347 2.731-0.541 4.336-0.541 4.938 0 9.875 1.646 11.52 4.941l268.26 268.357 21.394-21.405c0 0 0 0 0 0l46.084-46.098c0 0 0 0 0 0l228.762-228.846c8.229-8.232 18.103-11.524 27.977-11.524 9.878 0 19.752 3.291 26.335 11.524l131.661 131.708c14.811 14.822 14.811 39.515-0.004 54.334zM232.425-37.321l-57.585 57.607 547.186 545.806 56.795-56.816-546.397-546.597zM821.61 830.316c14.811 14.817 41.143 14.817 55.954 0l83.935-83.965c14.811-14.817 14.811-41.158 0-55.975l-88.872-88.904-139.889 139.941 88.872 88.904zM709.698 718.362l139.889-139.94-46.080-46.098-139.889 139.94 46.080 46.098zM335.285 417.902l35.385 35.397c6.582 6.583 6.582 16.464 0 23.051s-16.457 6.583-23.041 0l-35.385-35.397-23.863 23.87 57.603 57.622c6.582 6.587 6.582 16.464 0 23.051s-16.457 6.585-23.041 0l-57.603-57.622-23.041 23.047 34.561 34.575c6.582 6.585 6.582 16.463 0 23.050s-16.457 6.585-23.041 0l-34.561-34.574-23.041 23.050 57.603 57.624c6.582 6.585 6.582 16.463 0 23.050s-16.457 6.585-23.041 0l-57.599-57.627-24.686 24.695 34.561 34.574c6.582 6.585 6.582 16.463 0 23.050s-16.457 6.585-23.041 0l-34.561-34.574-23.041 23.050 57.603 57.623c6.582 6.585 6.582 16.463 0 23.050s-16.457 6.585-23.041 0l-57.6-57.626-23.041 23.050c-6.583 6.585-6.583 16.463 0 23.050l116.85 116.891c3.292 3.293 6.582 4.939 11.52 4.939 3.292 0 8.23-1.646 11.52-4.939l292.948-293.053-139.89-139.939-13.99 13.992zM640.578 647.569l57.582-57.606-547.183-545.803-56.797 56.814 546.398 546.595zM81.013 68.048l53.994-54.012c0.822-1.883 2.019-3.664 3.609-5.255l59.491-59.513-141.778-24.452 24.685 143.232zM971.377 53.233l-131.664-131.712c-1.646-1.646-6.583-1.646-8.229 0l-170.339 170.401 58.427 58.445c6.583 6.583 6.583 16.461 0 23.047s-16.457 6.587-23.044 0l-58.423-58.445-23.863 23.874 34.56 34.571c6.583 6.587 6.583 16.464 0 23.051s-16.457 6.587-23.040 0l-34.56-34.575-23.044 23.051 57.604 57.622c6.583 6.587 6.583 16.464 0 23.051s-16.457 6.587-23.044 0l-57.6-57.626-9.874 9.878 139.889 139.941 296.24-296.346c1.646-1.646 1.646-6.583 0.004-8.229z" />
<glyph unicode="&#xe930;" glyph-name="telegram" d="M45.942 413.319l224.152-83.663 86.761-279.020c5.552-17.869 27.404-24.474 41.908-12.616l124.946 101.857c13.097 10.67 31.754 11.203 45.44 1.27l225.357-163.62c15.519-11.274 37.499-2.775 41.39 15.974l165.089 794.101c4.25 20.481-15.877 37.566-35.379 30.024l-919.927-354.881c-22.702-8.755-22.504-40.897 0.263-49.428zM342.873 374.193l438.075 269.813c7.875 4.835 15.974-5.811 9.216-12.082l-361.543-336.070c-12.708-11.827-20.905-27.658-23.227-44.841l-12.316-91.269c-1.631-12.186-18.749-13.399-22.112-1.603l-47.366 166.431c-5.425 18.981 2.481 39.258 19.271 49.621z" />
<glyph unicode="&#xe931;" glyph-name="truck" d="M237.082 214.432c-56.037 0-101.607-45.578-101.607-101.625s45.571-101.625 101.607-101.625c56.037 0 101.607 45.578 101.607 101.625s-45.572 101.625-101.607 101.625zM237.082 45.059c-37.359 0-67.738 30.385-67.738 67.748 0 37.366 30.381 67.751 67.738 67.751s67.738-30.385 67.738-67.751c0-37.362-30.381-67.748-67.738-67.748zM812.855 214.432c-56.037 0-101.608-45.578-101.608-101.625s45.571-101.625 101.608-101.625c56.037 0 101.608 45.578 101.608 101.625s-45.571 101.625-101.608 101.625zM812.855 45.059c-37.359 0-67.738 30.385-67.738 67.748 0 37.366 30.382 67.751 67.738 67.751 37.359 0 67.738-30.385 67.738-67.751 0-37.362-30.379-67.748-67.738-67.748zM1013.374 308.292l-152.409 237.181c-3.116 4.846-8.486 7.777-14.244 7.777h-186.276c-9.366 0-16.937-7.59-16.937-16.941v-423.533c0-9.37 7.571-16.94 16.937-16.94h67.734v33.884h-50.801v389.646h160.096l144.725-225.219v-164.434h-84.675v-33.881h101.608c9.363 0 16.934 7.574 16.934 16.94v186.358c0 3.236-0.928 6.438-2.693 9.161zM745.117 333.042v118.564h135.475v33.877h-152.409c-9.366 0-16.934-7.588-16.934-16.937v-152.44c0-9.37 7.567-16.94 16.934-16.94h254.017v33.877h-237.083zM660.446 671.833h-643.512c-9.347 0-16.934-7.59-16.934-16.941v-542.12c0-9.366 7.587-16.94 16.934-16.94h135.477v33.884h-118.541v508.235h609.643v-508.235h-321.758v-33.884h338.691c9.363 0 16.934 7.574 16.934 16.94v542.12c0 9.351-7.571 16.941-16.934 16.941zM118.54 197.482h-101.607v-33.867h101.607v33.867zM643.509 197.482h-287.887v-33.867h287.887v33.867zM999.134 197.482h-67.738v-33.867h67.738v33.867zM660.446 604.083h-592.708v-33.869h592.708v33.869zM254.018 129.734h-33.869v-33.871h33.869v33.871zM829.792 129.734h-33.871v-33.871h33.871v33.871zM304.821 739.6h-237.083v-33.869h237.083v33.869zM33.87 739.6h-33.87v-33.869h33.87v33.869z" />
<glyph unicode="&#xe932;" glyph-name="userF" d="M519.066 407.623c131.139 0 237.448 101.686 237.448 227.124s-106.309 227.125-237.448 227.125c-131.142 0-237.451-101.688-237.451-227.125s106.309-227.124 237.451-227.124zM519.061 294.057c-237.69 0-430.376-184.307-430.376-411.666h860.755c0 227.359-192.686 411.666-430.378 411.666z" />
<glyph unicode="&#xe933;" glyph-name="userF2" d="M522.461 404.689c109.108 0 197.565 107.439 197.565 239.969 0 132.533-29.043 239.97-197.565 239.97s-197.571-107.436-197.571-239.97c0-132.53 88.457-239.969 197.571-239.969zM149.299 38.289c-0.034 8.081-0.067 2.278 0 0v0zM895.607 31.979c0.107 2.21 0.034 15.347 0 0v0zM895.185 47.979c-3.657 230.869-33.809 296.657-264.546 338.3 0 0-32.478-41.387-108.18-41.387s-108.188 41.387-108.188 41.387c-228.216-41.19-260.202-106.001-264.407-330.799-0.345-18.359-0.505-19.324-0.566-17.19 0.014-3.994 0.031-11.379 0.031-24.256 0 0 54.932-110.741 373.131-110.741 318.194 0 373.132 110.741 373.132 110.741 0 8.273 0.004 14.029 0.013 17.941-0.060-1.318-0.183 1.237-0.418 16.004z" />
<glyph unicode="&#xe934;" glyph-name="userL" d="M880.786 228.186c-53.107 53.107-116.322 92.423-185.295 116.224 73.869 50.878 122.402 136.025 122.402 232.307 0 155.442-126.464 281.905-281.907 281.905-155.44 0-281.903-126.463-281.903-281.905 0-96.282 48.532-181.429 122.404-232.307-68.972-23.801-132.187-63.117-185.297-116.224-92.099-92.101-142.821-214.552-142.821-344.8h76.19c0 226.86 184.566 411.429 411.427 411.429 226.865 0 411.429-184.569 411.429-411.429h76.19c0 130.248-50.722 252.699-142.819 344.8zM535.986 371.005c-113.428 0-205.712 92.28-205.712 205.712s92.284 205.714 205.712 205.714c113.435 0 205.717-92.282 205.717-205.714s-92.282-205.712-205.717-205.712z" />
<glyph unicode="&#xe935;" glyph-name="viber" d="M848.164 474.131c1.167 137.153-115.645 262.885-260.398 280.272-2.877 0.342-6.016 0.861-9.334 1.412-7.168 1.188-14.577 2.407-22.052 2.407-29.67 0-37.601-20.839-39.685-33.269-2.033-12.084-0.097-22.232 5.745-30.176 9.825-13.359 27.11-15.73 40.996-17.632 4.070-0.563 7.91-1.085 11.126-1.807 130.053-29.060 173.839-74.747 195.241-203.694 0.522-3.15 0.758-7.034 1.009-11.151 0.937-15.414 2.883-47.482 37.361-47.482v0c2.872 0 5.955 0.247 9.165 0.737 32.108 4.879 31.099 34.192 30.618 48.276-0.138 3.967-0.266 7.72 0.072 10.214 0.087 0.629 0.133 1.262 0.138 1.892zM547.963 804.745c3.85-0.278 7.501-0.544 10.537-1.009 213.56-32.843 311.772-134.025 338.99-349.255 0.461-3.659 0.532-8.121 0.609-12.846 0.271-16.815 0.829-51.798 38.395-52.521l1.167-0.011c11.781 0 21.156 3.553 27.858 10.568 11.694 12.232 10.88 30.404 10.22 45.009-0.159 3.583-0.312 6.958-0.271 9.912 2.714 220.124-187.827 419.731-407.752 427.153-0.916 0.030-1.787-0.019-2.662-0.142-0.435-0.063-1.234-0.142-2.606-0.142-2.191 0-4.89 0.19-7.752 0.384-3.461 0.237-7.383 0.509-11.356 0.509-35.025 0-41.683-24.894-42.534-39.733-1.965-34.297 31.214-36.71 47.157-37.874zM887.178 176.312c-4.541 3.466-9.231 7.055-13.629 10.598-23.316 18.765-48.123 36.060-72.115 52.787-4.977 3.466-9.958 6.938-14.915 10.419-30.73 21.586-58.363 32.077-84.465 32.077-35.154 0-65.807-19.425-91.105-57.733-11.208-16.978-24.806-25.236-41.564-25.236-9.907 0-21.171 2.826-33.464 8.407-99.191 44.979-170.020 113.946-210.523 204.984-19.579 44-13.232 72.76 21.227 96.168 19.568 13.281 55.991 38.006 53.41 85.351-2.922 53.766-121.554 215.545-171.539 233.918-21.162 7.782-43.398 7.855-66.207 0.18-57.464-19.317-98.699-53.241-119.261-98.099-19.87-43.344-18.973-94.238 2.595-147.179 62.35-153.067 150.010-286.522 260.555-396.648 108.205-107.807 241.194-196.111 395.276-262.461 13.891-5.975 28.457-9.236 39.096-11.612 3.625-0.814 6.753-1.51 9.037-2.135 1.254-0.343 2.545-0.527 3.84-0.538l1.219-0.005c0.005 0 0 0 0.005 0 72.474 0 159.488 66.222 186.214 141.722 23.414 66.104-19.338 98.78-53.688 125.036zM580.019 629.896c-12.411-0.314-38.231-0.954-47.293-27.254-4.234-12.289-3.727-22.96 1.51-31.715 7.695-12.846 22.431-16.782 35.835-18.943 48.614-7.801 73.58-34.682 78.572-84.591 2.319-23.271 17.992-39.522 38.113-39.522h0.005c1.485 0 3.005 0.087 4.521 0.271 24.197 2.878 35.927 20.659 34.867 52.839 0.389 33.586-17.188 71.715-47.084 102.087-29.998 30.465-66.161 47.622-99.046 46.828z" />
<glyph unicode="&#xe936;" glyph-name="vk" d="M872.366 308.434c32.594-31.821 66.995-61.759 96.225-96.789 12.913-15.567 25.139-31.63 34.488-49.696 13.256-25.68 1.249-53.943-21.775-55.474l-143.14 0.067c-36.92-3.067-66.371 11.796-91.136 37.038-19.814 20.187-38.17 41.671-57.226 62.538-7.813 8.529-15.99 16.554-25.759 22.898-19.538 12.684-36.5 8.8-47.667-11.58-11.372-20.728-13.952-43.681-15.068-66.78-1.536-33.71-11.72-42.568-45.578-44.114-72.359-3.41-141.030 7.537-204.824 44.037-56.243 32.179-99.856 77.607-137.817 129.036-73.91 100.143-130.511 210.184-181.382 323.308-11.451 25.487-3.077 39.168 25.045 39.653 46.696 0.907 93.387 0.843 140.138 0.065 18.979-0.278 31.543-11.163 38.871-29.093 25.265-62.121 56.178-121.224 94.982-176.007 10.334-14.585 20.871-29.17 35.875-39.436 16.6-11.366 29.238-7.599 37.047 10.892 4.955 11.725 7.124 24.354 8.242 36.912 3.7 43.204 4.187 86.333-2.302 129.385-3.983 26.868-19.118 44.262-45.928 49.347-13.681 2.592-11.644 7.683-5.020 15.492 11.506 13.468 22.327 21.852 43.898 21.852h161.772c25.467-5.026 31.124-16.467 34.611-42.093l0.138-179.694c-0.282-9.92 4.951-39.358 22.82-45.925 14.305-4.675 23.731 6.767 32.312 15.835 38.733 41.108 66.376 89.69 91.069 139.996 10.962 22.12 20.383 45.092 29.517 68.045 6.764 17.032 17.382 25.413 36.567 25.041l155.699-0.139c4.613 0 9.288-0.068 13.757-0.833 26.235-4.471 33.423-15.757 25.324-41.376-12.769-40.195-37.612-73.691-61.901-107.342-25.964-35.927-53.734-70.624-79.483-106.764-23.654-33.002-21.775-49.638 7.608-78.301z" />
<glyph unicode="&#xe937;" glyph-name="whatsappF" d="M532.124 858.622h-0.244c-268.863 0-487.499-218.697-487.499-487.617 0-106.667 34.377-205.531 92.831-285.808l-60.77-181.15 187.429 59.919c77.105-51.078 169.082-80.579 268.253-80.579 268.859 0 487.497 218.756 487.497 487.619 0 268.859-218.639 487.617-487.497 487.617zM815.85 170.043c-11.761-33.217-58.451-60.767-95.695-68.813-25.478-5.427-58.758-9.752-170.789 36.693-143.297 59.368-235.579 204.98-242.771 214.43-6.888 9.445-57.905 77.104-57.905 147.077s35.535 104.046 49.859 118.674c11.764 12.008 31.208 17.493 49.859 17.493 6.034 0 11.459-0.305 16.335-0.549 14.324-0.61 21.516-1.463 30.964-24.076 11.764-28.343 40.411-98.316 43.825-105.509 3.474-7.192 6.949-16.945 2.072-26.392-4.571-9.752-8.594-14.080-15.787-22.37s-14.019-14.629-21.211-23.528c-6.583-7.741-14.019-16.030-5.73-30.353 8.29-14.019 36.937-60.772 79.116-98.319 54.428-48.455 98.558-63.937 114.347-70.519 11.761-4.876 25.78-3.721 34.377 5.422 10.908 11.766 24.381 31.271 38.093 50.469 9.752 13.775 22.065 15.482 34.987 10.606 13.166-4.569 82.837-39.010 97.158-46.139 14.326-7.192 23.771-10.606 27.248-16.642 3.413-6.032 3.413-34.377-8.353-67.657z" />
<glyph unicode="&#xe938;" glyph-name="whatsappL" d="M487.743 881.791c-256.915-12.233-459.658-226.194-458.878-483.4 0.237-78.34 19.15-152.283 52.512-217.614l-51.223-248.643c-2.771-13.45 9.36-25.226 22.721-22.062l243.64 57.723c62.595-31.181 132.903-49.188 207.312-50.324 262.591-4.009 481.548 204.493 489.735 466.989 8.771 281.376-223.457 510.778-505.819 497.331zM778.46 132.756c-71.352-71.352-166.221-110.648-267.128-110.648-59.084 0-115.652 13.256-168.136 39.398l-33.93 16.906-149.377-35.395 31.443 152.637-16.716 32.732c-27.246 53.361-41.061 111.058-41.061 171.496 0 100.908 39.295 195.774 110.647 267.129 70.714 70.714 167.13 110.649 267.135 110.649 100.906-0.003 195.769-39.297 267.122-110.647 71.352-71.352 110.648-166.219 110.648-267.124 0-100.008-39.936-196.423-110.648-267.135zM745.482 295.255l-93.455 26.834c-12.288 3.528-25.518 0.041-34.468-9.083l-22.856-23.281c-9.636-9.82-24.259-12.974-37.012-7.813-44.209 17.889-137.204 100.572-160.953 141.933-6.852 11.931-5.719 26.846 2.694 37.732l19.952 25.812c7.817 10.114 9.466 23.696 4.297 35.386l-39.319 88.927c-9.418 21.299-36.636 27.5-54.417 12.461-26.082-22.060-57.030-55.583-60.792-92.721-6.633-65.478 21.448-148.021 127.638-247.129 122.678-114.499 220.917-129.628 284.881-114.13 36.28 8.786 65.275 44.012 83.569 72.858 12.477 19.666 2.627 45.783-19.758 52.214z" />
<glyph unicode="&#xe939;" glyph-name="youtube" d="M981.918 658.655c-35.426 42.109-100.826 59.285-225.728 59.285h-453.391c-127.76 0-194.269-18.284-229.559-63.116-34.407-43.71-34.407-108.114-34.407-197.251v-169.894c0-172.689 40.824-260.365 263.966-260.365h453.395c108.314 0 168.333 15.155 207.164 52.318 39.821 38.106 56.811 100.326 56.811 208.047v169.894c0 94.002-2.662 158.786-38.251 201.081zM668.851 349.171l-205.884-107.601c-4.599-2.406-9.634-3.601-14.66-3.601-5.692 0-11.371 1.532-16.401 4.578-9.473 5.739-15.256 16.004-15.256 27.081v214.511c0 11.054 5.768 21.311 15.222 27.053s21.214 6.135 31.023 1.038l205.884-106.908c10.475-5.439 17.054-16.252 17.071-28.050 0.013-11.808-6.537-22.637-16.998-28.101z" />
</font>
</defs>
</svg>
